<svg width="137" height="32" fill="none" xmlns="http://www.w3.org/2000/svg"><g opacity=".6" fill="#1D2130"><path d="M33.177 7.635h3.165v15.317h-3.165V7.635ZM38.115 17.705c0-1.102.325-2.18.935-3.095a5.545 5.545 0 0 1 2.492-2.05 5.515 5.515 0 0 1 6.04 1.221 5.59 5.59 0 0 1 1.18 6.075 5.559 5.559 0 0 1-2.053 2.492 5.52 5.52 0 0 1-3.087.922 5.445 5.445 0 0 1-3.918-1.62 5.492 5.492 0 0 1-1.59-3.945Zm7.934 0a2.423 2.423 0 0 0-1.528-2.187 2.395 2.395 0 0 0-2.6.564 2.42 2.42 0 0 0-.493 2.626 2.398 2.398 0 0 0 2.216 1.478 2.333 2.333 0 0 0 1.73-.719 2.354 2.354 0 0 0 .654-1.762h.021ZM61.654 12.458v9.975c0 3.519-2.743 5.013-5.518 5.013a5.256 5.256 0 0 1-2.835-.564 5.286 5.286 0 0 1-2.113-1.98l2.669-1.547a2.386 2.386 0 0 0 2.385 1.325 2.1 2.1 0 0 0 1.708-.565 2.12 2.12 0 0 0 .655-1.682v-.965a3.725 3.725 0 0 1-3.05 1.357c-1.398 0-2.74-.559-3.73-1.552a5.312 5.312 0 0 1-1.545-3.748c0-1.406.556-2.754 1.545-3.748a5.263 5.263 0 0 1 3.73-1.552 3.71 3.71 0 0 1 3.05 1.357v-1.06l3.05-.064Zm-3.049 5.035a2.553 2.553 0 0 0-.374-1.441 2.522 2.522 0 0 0-3.908-.502 2.546 2.546 0 0 0-.598 2.784 2.524 2.524 0 0 0 2.348 1.597 2.352 2.352 0 0 0 1.805-.654 2.375 2.375 0 0 0 .727-1.784ZM63.437 17.705c0-1.101.326-2.177.935-3.093a5.545 5.545 0 0 1 2.487-2.05 5.515 5.515 0 0 1 6.038 1.212 5.588 5.588 0 0 1 1.194 6.068 5.56 5.56 0 0 1-2.044 2.495 5.522 5.522 0 0 1-3.08.933 5.454 5.454 0 0 1-3.93-1.615 5.504 5.504 0 0 1-1.6-3.95Zm7.935 0a2.425 2.425 0 0 0-.437-1.326 2.408 2.408 0 0 0-2.48-.972 2.403 2.403 0 0 0-1.215.679 2.421 2.421 0 0 0-.486 2.629 2.398 2.398 0 0 0 2.223 1.47 2.333 2.333 0 0 0 1.73-.718 2.355 2.355 0 0 0 .654-1.762h.01ZM75.962 9.649a1.893 1.893 0 0 1 1.16-1.743 1.87 1.87 0 0 1 2.046.409 1.89 1.89 0 0 1 .407 2.056 1.885 1.885 0 0 1-1.735 1.165 1.895 1.895 0 0 1-1.322-.559 1.912 1.912 0 0 1-.556-1.328Zm.306 2.809h3.165v10.494h-3.165V12.458ZM92.98 17.705a5.323 5.323 0 0 1-1.364 3.834 5.276 5.276 0 0 1-3.668 1.731 3.909 3.909 0 0 1-3.166-1.283v5.184h-3.165V12.458h3.165v.986a3.912 3.912 0 0 1 3.166-1.272 5.256 5.256 0 0 1 3.657 1.72 5.307 5.307 0 0 1 1.376 3.813Zm-3.165 0a2.509 2.509 0 0 0-.45-1.373 2.491 2.491 0 0 0-2.567-1.008c-.48.104-.917.349-1.258.702a2.506 2.506 0 0 0-.506 2.721 2.5 2.5 0 0 0 .922 1.11c.41.272.89.415 1.38.413a2.374 2.374 0 0 0 1.811-.724 2.397 2.397 0 0 0 .668-1.841ZM102.614 19.804c0 2.417-2.11 3.445-4.347 3.445a4.562 4.562 0 0 1-2.63-.558 4.592 4.592 0 0 1-1.865-1.944l2.722-1.547c.108.378.342.707.663.933.32.226.709.334 1.1.307.748 0 1.128-.233 1.128-.657 0-1.156-5.138-.541-5.138-4.177 0-2.29 1.92-3.434 4.094-3.434a4.563 4.563 0 0 1 2.375.545 4.59 4.59 0 0 1 1.761 1.691l-2.723 1.442a1.544 1.544 0 0 0-1.403-.922c-.549 0-.876.212-.876.583 0 1.208 5.139.413 5.139 4.293ZM114.083 12.458v10.494h-3.166v-.986a3.593 3.593 0 0 1-2.975 1.304c-2.11 0-3.914-1.516-3.914-4.346v-6.466h3.165v5.989a1.75 1.75 0 0 0 .474 1.377 1.729 1.729 0 0 0 1.351.531c1.14 0 1.942-.678 1.942-2.12v-5.777h3.123ZM132.02 16.507v6.445h-3.166v-6.17c0-1.06-.496-1.716-1.498-1.716s-1.635.731-1.635 1.971v5.915h-3.166v-6.17c0-1.06-.496-1.716-1.498-1.716s-1.635.731-1.635 1.971v5.915h-3.166V12.458h3.166v.965a3.225 3.225 0 0 1 2.806-1.251 3.078 3.078 0 0 1 2.733 1.378 3.428 3.428 0 0 1 3.028-1.378c2.469 0 4.031 1.717 4.031 4.335ZM14.322 4.879V.374H.183v30.952h14.139v-4.505A10.895 10.895 0 0 1 6.6 23.608a10.997 10.997 0 0 1-3.199-7.758c0-2.91 1.151-5.7 3.199-7.758a10.895 10.895 0 0 1 7.722-3.213ZM14.322 4.879v21.942c2.896 0 5.674-1.156 7.722-3.213a10.997 10.997 0 0 0 3.198-7.758c0-2.91-1.15-5.7-3.198-7.758a10.895 10.895 0 0 0-7.722-3.213ZM134.679 12.394A2.326 2.326 0 0 0 137 10.062a2.326 2.326 0 0 0-2.321-2.332 2.327 2.327 0 0 0-2.322 2.332 2.327 2.327 0 0 0 2.322 2.332Z"/></g></svg>