<svg width="134" height="31" fill="none" xmlns="http://www.w3.org/2000/svg"><g opacity=".6" fill="#1D2130"><path d="M38.382 9.477h3.377v13.642h-3.377V9.477Zm4.723 8.51c0-3.379 2.104-5.404 5.26-5.404 3.155 0 5.259 2.025 5.259 5.404 0 3.38-2.03 5.426-5.26 5.426-3.229 0-5.259-1.973-5.259-5.426Zm7.174 0c0-1.857-.726-2.949-1.883-2.949s-1.873 1.05-1.873 2.95c0 1.899.716 2.938 1.873 2.938s1.904-1.04 1.904-2.928l-.021-.01Zm4.691 5.835h3.26a1.743 1.743 0 0 0 1.831 1.05c1.294 0 1.967-.693 1.967-1.722v-1.889h.01a3.224 3.224 0 0 1-3.155 1.837c-2.472 0-4.113-1.879-4.113-5.11 0-3.233 1.567-5.248 4.208-5.248a3.235 3.235 0 0 1 3.155 1.984h-.095v-1.9h3.345v10.221c0 2.466-2.187 4.01-5.406 4.01-2.924-.011-4.797-1.344-4.986-3.223l-.021-.01Zm7.069-5.835c0-1.647-.758-2.686-1.957-2.686-1.2 0-1.935 1.05-1.935 2.686 0 1.637.725 2.603 1.935 2.603s1.956-.892 1.956-2.603Zm4.68 0c0-3.379 2.104-5.404 5.26-5.404 3.155 0 5.259 2.025 5.259 5.404 0 3.38-2.04 5.426-5.26 5.426-3.218 0-5.238-1.973-5.238-5.426h-.02Zm7.174 0c0-1.857-.736-2.949-1.883-2.949-1.146 0-1.872 1.05-1.872 2.95 0 1.899.715 2.938 1.872 2.938s1.904-1.04 1.904-2.928l-.021-.01Zm4.712-7.65a1.718 1.718 0 0 1 1.013-1.641A1.729 1.729 0 0 1 82.015 9.9a1.716 1.716 0 0 1-.719 1.789 1.728 1.728 0 0 1-.966.296 1.665 1.665 0 0 1-1.567-1 1.655 1.655 0 0 1-.137-.637l-.02-.01Zm0 2.477h3.419V23.16h-3.366l-.053-10.347Zm15.715 5.173c0 3.369-1.514 5.32-4.092 5.32a3.234 3.234 0 0 1-3.155-1.92h-.063v5.1h-3.377V12.846h3.356v1.847h.063a3.244 3.244 0 0 1 3.155-1.994c2.651-.02 4.176 1.92 4.176 5.3l-.063-.01Zm-3.44 0c0-1.637-.767-2.697-1.956-2.697s-1.935 1.05-1.946 2.697c-.01 1.648.758 2.687 1.946 2.687 1.189 0 2.02-.976 2.02-2.676l-.063-.01Zm9.204-5.415c2.83 0 4.586 1.333 4.608 3.474h-3.082c0-.745-.621-1.207-1.547-1.207-.925 0-1.367.357-1.367.892s.39.703 1.168.86l2.166.441c2.104.441 2.946 1.28 2.946 2.844 0 2.099-1.946 3.526-4.839 3.526-2.893 0-4.775-1.385-4.912-3.494h3.271c.095.766.705 1.217 1.694 1.217.988 0 1.451-.315 1.451-.871s-.315-.65-1.125-.819l-1.957-.409c-2.03-.43-3.092-1.49-3.092-3.075.063-2.056 1.83-3.368 4.68-3.368l-.063-.01Zm16.199 10.578h-3.271V21.21h-.063a2.972 2.972 0 0 1-3.019 2.151 3.61 3.61 0 0 1-3.52-2.4 3.591 3.591 0 0 1-.193-1.493v-6.643h3.376v5.919c0 1.217.642 1.878 1.694 1.878a1.732 1.732 0 0 0 1.297-.601 1.722 1.722 0 0 0 .396-1.372v-5.824h3.366l-.063 10.326Zm1.63-10.336h3.282v1.994h.074a3.01 3.01 0 0 1 2.956-2.183 2.688 2.688 0 0 1 2.882 2.193h.147a3.145 3.145 0 0 1 1.204-1.632 3.163 3.163 0 0 1 1.952-.561 3.286 3.286 0 0 1 3.211 2.16c.157.434.22.896.186 1.355v7.02h-3.397V17c0-1.049-.495-1.636-1.452-1.636a1.476 1.476 0 0 0-1.433 1.042 1.458 1.458 0 0 0-.05.626v6.129h-3.219v-6.192c0-1.05-.515-1.605-1.441-1.605a1.508 1.508 0 0 0-1.449 1.057c-.063.204-.082.42-.055.632v6.108h-3.377l-.021-10.347ZM31.703 10.369c0-2.089-.632-4.129-1.814-5.853A10.388 10.388 0 0 0 25.08.706 10.415 10.415 0 0 0 13.653 3.36H.526V31h27.716V18.082a10.359 10.359 0 0 0 3.46-7.713Zm-5.333 0a5.05 5.05 0 0 1-.85 2.813 5.08 5.08 0 0 1-7.802.778 5.055 5.055 0 0 1-1.103-5.514 5.061 5.061 0 0 1 1.867-2.272 5.078 5.078 0 0 1 6.4.625 5.052 5.052 0 0 1 1.488 3.57Zm-3.46 15.31H5.857v-17h5.197c-.1.558-.153 1.123-.158 1.69.003 2.751 1.1 5.39 3.05 7.335a10.426 10.426 0 0 0 7.353 3.043c.539-.003 1.077-.048 1.61-.136v5.069Z"/></g></svg>