<svg xmlns="http://www.w3.org/2000/svg" fill="#716fe7" viewBox="0 0 32000 32000"><path d="M21777 29333H10220c-4519 0-7554-3170-7554-7888V10555c0-4718 3035-7889 7554-7889h11557c4520 0 7555 3171 7555 7890v10890c0 4718-3036 7887-7556 7887Z" opacity=".4"/><path d="M14993 11566a3318 3318 0 0 1-3313 3314 3317 3317 0 0 1-3314-3314 3318 3318 0 0 1 3314-3314 3319 3319 0 0 1 3313 3314zm10874 7217a2910 2910 0 0 1 680 1012c444 1110 213 2443-261 3541a4851 4851 0 0 1-2998 2729 6104 6104 0 0 1-1865 275H10248c-1112 0-2096-258-2902-744-506-303-595-1003-220-1460l1869-2291c1190-1473 1990-1900 2881-1524 362 154 724 387 1098 633 994 659 2377 1563 4198 581 1245-680 1968-1846 2597-2860l13-20 126-203 663-1000c296-388 1395-1600 2815-737 905 544 1666 1280 2481 2068" fill-rule="evenodd"/></svg>