<svg xmlns="http://www.w3.org/2000/svg" fill="#716fe7" viewBox="0 0 32000 32000"><path d="M22219 29320H9779a7124 7124 0 01-5247-1852A7128 7128 0 01 2680 22220V9780a7127 7127 0 01 1850-5248A7129 7129 0 01 9780 2680h12439a7117 7117 0 01 5244 1850 7162 7162 0 01 1857 5250v12440a7133 7133 0 01-1852 5248 7130 7130 0 01-5249 1851Z" opacity=".4"/><path d="m22740 13863-8738 8780a2399 2399 0 01-1675 690h-3050a617 617 0 01-442-182 608 608 0 01-169-442l78-3083c13-612 260-1184 688-1613l6193-6205a282 282 0 01 390 0l2171 2163a820 820 0 00 572 234c480 0 856-390 856-858a882 882 0 00-233-599c-40-52-2107-2110-2107-2110a346 346 0 01 0-482l870-885a2050 2050 0 01 2908 0l1687 1691a2068 2068 0 01 0 2901Z"/></svg>
