<svg xmlns="http://www.w3.org/2000/svg" fill="#716fe7" viewBox="0 0 32000 32000">
  <path d="M21434 2666h4515c1870 0 3384 1528 3384 3414v4552c0 1886-1515 3414-3384 3414h-4515c-1870 0-3385-1528-3385-3414V6080c0-1886 1515-3414 3385-3414Z" opacity=".4"/>
  <path d="M6051 2666h4515c1870 0 3384 1528 3384 3414v4552c0 1886-1514 3414-3384 3414H6050c-1870 0-3385-1528-3385-3414V6080c0-1886 1516-3414 3385-3414Zm0 15288h4515c1870 0 3384 1527 3384 3413v4553c0 1884-1514 3413-3384 3413H6050c-1870 0-3385-1530-3385-3413v-4553c0-1886 1516-3413 3385-3413Zm19898 0h-4515c-1870 0-3385 1527-3385 3413v4553c0 1884 1515 3413 3385 3413h4514c1870 0 3385-1530 3385-3413v-4553c0-1886-1515-3413-3384-3413Z" fill-rule="evenodd"/>
</svg>
