<svg xmlns="http://www.w3.org/2000/svg" width="107" height="24" fill="none"><path d="M1.667 4.078v4.9c0 .803 0 1.706-1.667 1.706v2.632c1.667 0 1.667.902 1.667 1.707v4.899C1.667 23.724 3.751 24 7.293 24v-2.957C5.626 21.043 5 20.797 5 19.849v-4.851c0-1.12.077-2.29-.9-2.998.977-.707.9-1.877.9-2.998v-4.85c0-.948.625-1.194 2.292-1.194V0C3.75 0 1.667.276 1.667 4.078Zm9.374-.158c-.91.77-1.366 1.874-1.366 3.315v1.293H7.773v2.703h1.902v9.796h4.135v-9.796h2.561V8.528H13.81v-.922c0-.47.138-.832.414-1.086.277-.254.672-.38 1.184-.38l1.537.004V3.007s-2.295-.025-2.623-.025c-.998 0-2.37.167-3.28.938Zm7.722 2.212h4.135V3.007h-4.135v3.125Zm0 14.895h4.135V8.528h-4.135v12.5Zm14.332-12.73c-.78 0-1.488.176-2.122.526a4.678 4.678 0 0 0-1.598 1.46l-.159-1.755H25.35v12.499h4.111v-8.986c.211-.232.466-.414.762-.543.297-.13.636-.197 1.019-.197.61 0 1.071.149 1.384.445.313.297.47.802.47 1.519v7.763h4.123v-7.751c0-1.733-.365-2.996-1.092-3.79-.727-.793-1.738-1.19-3.031-1.19Zm16.59 6.568c-.776-.597-1.97-1.046-3.58-1.347-1.024-.183-1.705-.393-2.042-.624-.338-.23-.507-.512-.507-.843 0-.347.147-.63.44-.854.292-.223.654-.336 1.085-.336.585 0 1.01.128 1.274.382s.397.628.397 1.12h4l.025-.069c.05-1.18-.447-2.139-1.488-2.882-1.041-.744-2.44-1.116-4.196-1.116-1.668 0-2.989.384-3.965 1.15-.975.767-1.463 1.7-1.463 2.8 0 1.04.39 1.861 1.17 2.461.781.601 1.94 1.044 3.477 1.33.976.192 1.649.409 2.019.651.37.243.555.52.555.826 0 .377-.143.67-.427.872-.285.204-.703.307-1.256.307-.667 0-1.182-.132-1.543-.393-.362-.261-.551-.689-.567-1.282H39.36l-.024.069c-.048 1.063.45 2.026 1.495 2.888 1.044.863 2.465 1.294 4.262 1.294 1.732 0 3.125-.364 4.178-1.092 1.053-.728 1.58-1.653 1.58-2.778 0-1.093-.389-1.938-1.165-2.534Zm14.718.906h-.073L62.159 8.53H59.56l-2.146 7.301h-.073l-1.452-7.3h-3.805l3.11 12.498h3.477l2.158-6.63h.073l2.147 6.63h3.489l3.098-12.499h-3.805l-1.428 7.242Zm12.232-7.474c-1.96-.008-3.467.591-4.52 1.797-1.053 1.205-1.58 2.758-1.58 4.66v.44c0 1.74.58 3.188 1.738 4.343 1.159 1.156 2.71 1.733 4.654 1.733 1.049 0 2.03-.132 2.946-.398.914-.265 1.66-.598 2.237-.999l-.975-2.38c-.715.286-1.307.485-1.775.601-.468.117-1.092.174-1.873.174-.772 0-1.39-.206-1.853-.618a2.51 2.51 0 0 1-.83-1.577l.025-.07h7.537v-2.046c0-1.74-.508-3.118-1.524-4.135-1.015-1.017-2.418-1.525-4.207-1.525Zm1.708 5.268h-3.55l-.036-.057c.065-.67.246-1.206.543-1.606.297-.4.742-.6 1.336-.6.586 0 1.016.17 1.293.508.276.339.415.824.415 1.455v.3ZM90.47 8.297c-1.96-.008-3.466.591-4.52 1.797-1.052 1.205-1.58 2.758-1.58 4.66v.44c0 1.74.58 3.188 1.739 4.343 1.16 1.156 2.71 1.733 4.653 1.733 1.05 0 2.031-.132 2.947-.398.915-.265 1.66-.598 2.238-.999l-.976-2.38c-.716.286-1.307.485-1.775.601-.469.117-1.092.174-1.873.174-.772 0-1.39-.206-1.854-.618a2.51 2.51 0 0 1-.83-1.577l.025-.07h7.538v-2.046c0-1.74-.509-3.118-1.525-4.135S92.26 8.297 90.47 8.297Zm1.707 5.268H88.63l-.037-.057c.065-.67.246-1.206.543-1.606.296-.4.741-.6 1.335-.6.586 0 1.017.17 1.294.508.277.339.415.824.415 1.455v.3h-.002Zm12.495 4.22c-.512 0-.907-.126-1.183-.38-.277-.254-.415-.617-.415-1.087v-5.065h2.145V8.55h-2.145V2.987h-4.135v5.562h-1.903v2.704h1.903v5.436c0 1.44.455 2.546 1.366 3.316.91.771 2.281.938 3.28.938.329 0 2.624-.025 2.624-.025v-3.136l-1.537.003Z" fill="#fff"/></svg>