<svg width="28" height="28" fill="none" xmlns="http://www.w3.org/2000/svg"><rect width="28" height="28" rx="4" fill="#83D187"/><path d="M15.6 14.041a6.557 6.557 0 0 0-1.254 1.573c-.394-1.348-.89-2.336-1.393-3.06C15.257 5.262 4.027 5 4.027 5s.328 9.115 6.193 8.906a8.495 8.495 0 0 0-.251-1.806c-.092-.377-.2-.737-.313-1.07-.375-1.1-.798-1.882-.798-1.882.427.544.806 1.063 1.14 1.551 1.151 1.678 1.78 2.982 2.071 3.671.72 1.467 1.368 3.88 1.368 7.822 0 .447.383.808.852.808.47 0 .853-.361.853-.808 0-1.278-.065-2.415-.183-3.429.272-1.238.682-2.116 1.107-2.738a17.25 17.25 0 0 1 1.485-2.249c.617-.784 1.378-1.583 2.238-2.153 0 0-1.764 1.85-1.878 3.662 4.873.24 5.063-7.023 5.063-7.023s-8.92.288-7.374 5.78Z" fill="#DDFFDF"/></svg>