<svg width="20" height="18" viewBox="0 0 20 18" fill="none" xmlns="http://www.w3.org/2000/svg">
<path d="M6.2918 17.1202C13.8371 17.1202 17.9652 10.8675 17.9652 5.44677C17.9652 5.27099 17.9613 5.0913 17.9535 4.91552C18.7566 4.33477 19.4496 3.61543 20 2.7913C19.2521 3.12405 18.458 3.34137 17.6449 3.43583C18.5011 2.92264 19.1421 2.11645 19.4492 1.16669C18.6438 1.64402 17.763 1.98073 16.8445 2.1624C16.2257 1.50485 15.4075 1.06948 14.5164 0.923596C13.6253 0.777708 12.711 0.929429 11.9148 1.3553C11.1186 1.78117 10.4848 2.45747 10.1115 3.27965C9.73825 4.10182 9.64619 5.02407 9.84961 5.9038C8.21874 5.82196 6.62328 5.39831 5.16665 4.6603C3.71002 3.9223 2.42474 2.88642 1.39414 1.61982C0.870333 2.52292 0.710047 3.59159 0.945859 4.60863C1.18167 5.62567 1.79589 6.51476 2.66367 7.09521C2.01219 7.07452 1.37498 6.89912 0.804688 6.58349V6.63427C0.804104 7.58201 1.13175 8.50071 1.73192 9.23419C2.3321 9.96768 3.16777 10.4707 4.09687 10.6577C3.49338 10.8228 2.85999 10.8469 2.2457 10.728C2.50788 11.5431 3.01798 12.256 3.70481 12.7672C4.39164 13.2784 5.22093 13.5624 6.07695 13.5796C4.62369 14.7211 2.82848 15.3403 0.980469 15.3374C0.652739 15.3369 0.325333 15.3168 0 15.2772C1.87738 16.4817 4.06128 17.1214 6.2918 17.1202Z" fill="#1D2130"/>
</svg>
